HIERARCHY
ROOT butt
{
	OFFSET 0.000000 0.000000 0.000000
	CHANNELS 6 Xposition Yposition Zposition Xrotation Yrotation Zrotation
	JOINT lhip
	{
		OFFSET 0.583813 0.718669 -0.323938
		CHANNELS 6 Xposition Yposition Zposition Xrotation Yrotation Zrotation
		JOINT lknee
		{
			OFFSET 0.553245 0.216339 -1.020714
			CHANNELS 6 Xposition Yposition Zposition Xrotation Yrotation Zrotation
			JOINT lankle
			{
				OFFSET -0.339279 0.080945 -1.465530
				CHANNELS 6 Xposition Yposition Zposition Xrotation Yrotation Zrotation
				End Site
				{
					OFFSET 0.537810 -0.043777 -0.195635
				}
			}
		}
	}
	JOINT rhip
	{
		OFFSET 0.339136 -0.940503 -0.149914
		CHANNELS 6 Xposition Yposition Zposition Xrotation Yrotation Zrotation
		JOINT rknee
		{
			OFFSET 0.601234 -0.223249 -1.073499
			CHANNELS 6 Xposition Yposition Zposition Xrotation Yrotation Zrotation
			JOINT rankle
			{
				OFFSET -0.245263 -0.041399 -1.532960
				CHANNELS 6 Xposition Yposition Zposition Xrotation Yrotation Zrotation
				End Site
				{
					OFFSET 0.653910 0.024899 -0.232875
				}
			}
		}
	}
	JOINT abdomen
	{
		OFFSET 0.907647 0.026340 0.317664
		CHANNELS 6 Xposition Yposition Zposition Xrotation Yrotation Zrotation
		JOINT neck
		{
			OFFSET 1.496963 0.039292 -0.038456
			CHANNELS 6 Xposition Yposition Zposition Xrotation Yrotation Zrotation
			End Site
			{
				OFFSET 2.739308 -0.092250 1.009232
			}
		}
		JOINT lshldr
		{
			OFFSET 1.132326 0.559775 -0.444207
			CHANNELS 6 Xposition Yposition Zposition Xrotation Yrotation Zrotation
			JOINT lelbow
			{
				OFFSET -0.149559 0.286290 -0.912030
				CHANNELS 6 Xposition Yposition Zposition Xrotation Yrotation Zrotation
				JOINT lwrist
				{
					OFFSET 0.485181 -0.390159 0.265472
					CHANNELS 6 Xposition Yposition Zposition Xrotation Yrotation Zrotation
					End Site
					{
						OFFSET 0.527290 -0.521758 -0.124363
					}
				}
			}
		}
		JOINT rshldr
		{
			OFFSET 1.100885 -0.503887 -0.296241
			CHANNELS 6 Xposition Yposition Zposition Xrotation Yrotation Zrotation
			JOINT relbow
			{
				OFFSET -0.198937 -0.642069 -0.689888
				CHANNELS 6 Xposition Yposition Zposition Xrotation Yrotation Zrotation
				JOINT rwrist
				{
					OFFSET 0.636091 0.394674 0.001069
					CHANNELS 6 Xposition Yposition Zposition Xrotation Yrotation Zrotation
					End Site
					{
						OFFSET 0.557086 0.133476 -0.377524
					}
				}
			}
		}
	}
}
MOTION
Frames: 11
Frame Time: 0.033333
0.263880 -0.057105 0.216330 -6.561401 6.730389 -5.383205 0.583813 0.718669 -0.323938 27.418768 -10.017008 1.499578 0.553245 0.216339 -1.020714 1.947773 25.131567 44.971823 -0.339279 0.080945 -1.465530 -44.876884 -10.189620 -52.297068 0.339136 -0.940503 -0.149914 3.012614 0.564140 -9.599297 0.601234 -0.223249 -1.073499 11.621321 3.249150 17.194902 -0.245263 -0.041399 -1.532960 7.135867 -8.456397 -0.106207 0.907647 0.026340 0.317664 5.921891 12.452516 -2.094787 1.496963 0.039292 -0.038456 9.445516 4.412795 9.497589 1.132326 0.559775 -0.444207 14.184785 20.941710 -96.539895 -0.149559 0.286289 -0.912030 146.791817 29.166369 -58.870391 0.485181 -0.390159 0.265472 1.221839 1.574792 19.671467 1.100885 -0.503887 -0.296241 35.496377 -51.131486 -5.308084 -0.198937 -0.642069 -0.689888 -52.087576 122.893067 24.791614 0.636091 0.394674 0.001069 5.251066 -7.531686 14.342528 
0.266593 -0.060260 0.214300 -6.405386 6.503726 -5.091063 0.583813 0.718669 -0.323938 24.748147 -11.089204 0.263615 0.553245 0.216339 -1.020714 1.698262 25.530458 45.557256 -0.339279 0.080945 -1.465531 -44.920385 -9.862905 -52.188355 0.339136 -0.940503 -0.149914 3.856668 0.559666 -8.896734 0.601234 -0.223249 -1.073499 11.709077 3.075812 16.128110 -0.245263 -0.041399 -1.532960 7.320077 -8.852400 -0.055016 0.907647 0.026340 0.317664 5.733171 11.900617 -1.662628 1.496964 0.039292 -0.038456 9.474358 8.564571 8.872317 1.132326 0.559775 -0.444207 14.487260 20.925297 -97.163642 -0.149559 0.286290 -0.912030 146.652453 29.232038 -58.989673 0.485181 -0.390159 0.265472 1.421307 1.584411 19.739213 1.100885 -0.503887 -0.296241 35.974214 -50.745218 -5.195526 -0.198937 -0.642069 -0.689888 -51.604681 123.137929 24.390655 0.636091 0.394674 0.001069 5.290595 -7.512078 14.373874 
0.267530 -0.062215 0.206750 -6.252828 6.285451 -4.629084 0.583813 0.718669 -0.323938 22.119954 -12.217721 -1.101978 0.553245 0.216339 -1.020714 1.036310 26.230028 46.158196 -0.339279 0.080945 -1.465531 -45.124072 -9.693184 -52.153853 0.339136 -0.940503 -0.149914 5.130159 0.231125 -8.066813 0.601234 -0.223249 -1.073499 11.481936 3.140417 14.283064 -0.245263 -0.041399 -1.532960 7.365402 -9.505339 0.042925 0.907647 0.026340 0.317664 5.526858 10.225837 -0.787469 1.496964 0.039292 -0.038456 9.693101 13.035933 8.316465 1.132326 0.559775 -0.444207 14.913440 20.790483 -97.544923 -0.149559 0.286290 -0.912030 146.431019 29.235283 -58.960911 0.485181 -0.390159 0.265472 1.631734 1.594332 19.850917 1.100885 -0.503887 -0.296241 36.359119 -50.350864 -5.134848 -0.198937 -0.642069 -0.689888 -51.220787 123.257362 24.042525 0.636091 0.394674 0.001069 5.339032 -7.493179 14.407505 
0.269813 -0.063474 0.190100 -6.062808 5.991907 -3.715984 0.583813 0.718669 -0.323938 19.558569 -13.344723 -2.570000 0.553245 0.216339 -1.020714 -0.090973 27.275391 46.762303 -0.339279 0.080945 -1.465530 -45.548698 -9.704725 -52.225272 0.339136 -0.940503 -0.149914 6.876255 -0.376065 -7.049768 0.601234 -0.223249 -1.073499 10.910960 3.423167 11.378005 -0.245263 -0.041399 -1.532960 7.063246 -10.558824 0.201589 0.907647 0.026340 0.317664 5.266682 7.748170 0.304793 1.496963 0.039292 -0.038456 10.057232 17.626434 7.960161 1.132326 0.559775 -0.444207 15.487106 20.290875 -97.438516 -0.149559 0.286290 -0.912030 145.979202 29.117021 -58.660246 0.485181 -0.390159 0.265472 1.772262 1.592968 19.859837 1.100885 -0.503887 -0.296241 36.784810 -49.868342 -4.942730 -0.198937 -0.642069 -0.689888 -51.017217 123.232759 23.821314 0.636091 0.394674 0.001069 5.339521 -7.487699 14.407357 
0.277210 -0.064537 0.162090 -5.795440 5.556467 -2.190189 0.583813 0.718669 -0.323938 17.362872 -14.444590 -3.904675 0.553245 0.216339 -1.020714 -1.562502 28.541955 47.205418 -0.339279 0.080945 -1.465531 -46.245845 -9.937207 -52.425301 0.339136 -0.940503 -0.149914 8.856127 -1.243981 -5.901469 0.601234 -0.223249 -1.073499 9.892668 4.007006 7.406574 -0.245263 -0.041399 -1.532960 6.211799 -12.003876 0.388914 0.907647 0.026340 0.317664 4.884859 4.764746 1.473758 1.496964 0.039292 -0.038456 10.448824 22.159526 7.854141 1.132326 0.559775 -0.444207 16.298954 19.063263 -96.800296 -0.149559 0.286290 -0.912030 145.130400 28.835945 -58.013516 0.485181 -0.390159 0.265472 1.888882 1.571962 19.611596 1.100885 -0.503887 -0.296241 37.248730 -49.281580 -4.621604 -0.198937 -0.642069 -0.689888 -51.007989 123.014343 23.724966 0.636091 0.394674 0.001069 5.255149 -7.531902 14.346773 
0.294459 -0.065868 0.124170 -5.432215 5.065141 -0.228191 0.583813 0.718669 -0.323938 15.717225 -16.707838 -4.861186 0.553245 0.216339 -1.020714 -3.061846 29.729054 47.275762 -0.339279 0.080945 -1.465531 -47.161766 -10.321959 -52.721916 0.339136 -0.940503 -0.149914 10.543388 -2.374193 -4.846615 0.601234 -0.223249 -1.073499 8.414512 4.999301 2.795111 -0.245263 -0.041399 -1.532961 4.929645 -13.589671 0.528739 0.907647 0.026340 0.317664 4.424205 1.407061 2.601870 1.496964 0.039292 -0.038456 10.725288 26.496723 8.026685 1.132326 0.559775 -0.444207 17.409761 16.680247 -95.725436 -0.149559 0.286290 -0.912030 143.856379 28.335074 -56.940002 0.485181 -0.390159 0.265472 2.164346 1.510861 18.950763 1.100885 -0.503887 -0.296241 37.345162 -48.689642 -4.592044 -0.198936 -0.642069 -0.689888 -51.166880 122.513021 23.698045 0.636091 0.394674 0.001069 5.073017 -7.618916 14.218963 
0.326880 -0.066600 0.082320 -5.017112 4.631404 1.662233 0.583813 0.718669 -0.323938 16.172307 -20.908452 -4.396570 0.553245 0.216339 -1.020714 -4.158459 30.484869 46.889286 -0.339279 0.080945 -1.465531 -48.217779 -10.667267 -53.044530 0.339136 -0.940503 -0.149914 11.506194 -3.247440 -4.218415 0.601234 -0.223249 -1.073499 6.598731 6.538303 -1.589732 -0.245263 -0.041399 -1.532960 3.673159 -15.001189 0.579852 0.907647 0.026340 0.317664 3.965921 -2.358237 3.535546 1.496964 0.039292 -0.038456 10.609229 30.640140 8.598717 1.132326 0.559775 -0.444207 18.635220 12.977283 -94.169690 -0.149559 0.286289 -0.912030 142.622642 27.548923 -55.450908 0.485181 -0.390159 0.265472 2.608468 1.396836 17.878993 1.100885 -0.503887 -0.296241 36.575619 -48.170541 -5.304189 -0.198936 -0.642069 -0.689888 -51.292316 121.677457 23.513561 0.636091 0.394674 0.001069 4.859381 -7.719749 14.067924 
0.379821 -0.064431 0.046020 -4.628887 4.318773 3.004290 0.583813 0.718669 -0.323938 17.764053 -27.082511 -2.864277 0.553245 0.216339 -1.020714 -4.494296 30.604210 46.395289 -0.339279 0.080945 -1.465531 -49.193591 -10.643046 -53.225694 0.339136 -0.940503 -0.149914 10.880886 -4.127683 -4.340930 0.601234 -0.223249 -1.073499 4.643417 9.283708 -4.818638 -0.245263 -0.041399 -1.532960 3.025250 -16.123739 0.613672 0.907647 0.026340 0.317664 3.511347 -6.602991 4.028390 1.496963 0.039292 -0.038456 9.824233 34.646295 9.728682 1.132326 0.559775 -0.444207 19.425818 8.255239 -92.002730 -0.149559 0.286290 -0.912030 142.208077 26.545984 -53.723311 0.485181 -0.390159 0.265472 2.879967 1.260932 16.596622 1.100885 -0.503887 -0.296241 34.522016 -47.789246 -7.042503 -0.198937 -0.642069 -0.689888 -50.979484 120.586635 22.796902 0.636091 0.394674 0.001069 4.788536 -7.753406 14.013421 
0.456856 -0.056358 0.025550 -4.347783 4.087969 3.752209 0.583813 0.718669 -0.323938 18.489001 -34.573277 -1.485279 0.553245 0.216339 -1.020714 -3.913145 30.246239 46.738213 -0.339279 0.080945 -1.465530 -49.799411 -9.847876 -53.034172 0.339136 -0.940503 -0.149914 7.602281 -6.424563 -5.464913 0.601234 -0.223249 -1.073499 2.814029 13.811226 -6.286250 -0.245263 -0.041399 -1.532960 3.075840 -17.071453 0.693439 0.907647 0.026340 0.317664 3.002021 -11.312643 4.075672 1.496963 0.039292 -0.038456 8.261293 38.513415 11.589947 1.132326 0.559775 -0.444207 19.248402 3.270570 -89.325972 -0.149559 0.286290 -0.912030 142.856822 25.544347 -51.969697 0.485181 -0.390159 0.265472 2.508269 1.136292 15.285268 1.100885 -0.503887 -0.296241 31.056969 -47.560540 -9.850078 -0.198937 -0.642069 -0.689888 -49.821282 119.526220 21.226256 0.636091 0.394674 0.001069 4.961919 -7.671924 14.139308 
0.557942 -0.040320 0.028420 -4.207090 3.820076 4.350427 0.583813 0.718669 -0.323938 18.978777 -41.134558 -0.024824 0.553245 0.216339 -1.020714 -2.676756 29.979244 49.224480 -0.339279 0.080945 -1.465531 -49.599567 -8.010641 -52.240555 0.339136 -0.940503 -0.149914 3.038876 -8.943083 -7.773919 0.601234 -0.223249 -1.073499 1.503755 18.995577 -5.898866 -0.245263 -0.041399 -1.532961 3.384902 -17.974099 0.810157 0.907647 0.026340 0.317664 2.452873 -16.263092 3.973679 1.496964 0.039292 -0.038456 6.179643 41.993933 13.987019 1.132326 0.559775 -0.444207 17.960889 -1.055906 -86.626961 -0.149559 0.286290 -0.912030 144.278867 24.813423 -50.489400 0.485181 -0.390159 0.265472 1.468981 1.041020 13.836272 1.100885 -0.503887 -0.296241 26.361288 -47.367546 -13.480315 -0.198937 -0.642069 -0.689888 -47.732883 118.826577 18.808167 0.636091 0.394674 0.001069 5.353050 -7.483189 14.413726 
0.680420 -0.017461 0.056110 -4.264245 3.380750 5.208892 0.583813 0.718669 -0.323938 20.572289 -44.645398 2.403166 0.553245 0.216339 -1.020714 -1.618525 30.468043 54.586056 -0.339279 0.080945 -1.465530 -48.011309 -5.151759 -50.751143 0.339136 -0.940503 -0.149914 -1.062655 -10.776677 -10.789724 0.601234 -0.223249 -1.073499 0.922489 23.901072 -4.103970 -0.245263 -0.041399 -1.532960 3.300593 -18.560380 0.848262 0.907647 0.026340 0.317664 2.075265 -20.987887 4.126445 1.496964 0.039292 -0.038456 4.204238 44.661647 16.310640 1.132326 0.559775 -0.444207 16.105926 -4.008766 -84.409124 -0.149559 0.286290 -0.912030 145.972440 24.461006 -49.479287 0.485181 -0.390159 0.265472 0.471048 0.944216 12.142264 1.100885 -0.503887 -0.296241 20.899271 -47.001735 -17.511540 -0.198937 -0.642069 -0.689888 -45.242254 118.654292 16.122747 0.636091 0.394674 0.001069 5.705988 -7.311704 14.666557 
